<svg width="204" height="257" viewBox="0 0 204 257" fill="none" xmlns="http://www.w3.org/2000/svg">
<path fill-rule="evenodd" clip-rule="evenodd" d="M71.515 0C65.7607 0 60.5137 3.29187 58.0096 8.47278L0 128.5H60.0001L111.7 21.5272C116.514 11.5668 109.258 0 98.1951 0H71.515Z" fill="#CBCBCB"/>
<path fill-rule="evenodd" clip-rule="evenodd" d="M161.515 0C155.761 0 150.514 3.29186 148.01 8.4728L90 128.5H150L201.7 21.5272C206.514 11.5667 199.258 0 188.195 0H161.515Z" fill="#CBCBCB"/>
<path fill-rule="evenodd" clip-rule="evenodd" d="M71.9104 257C66.1561 257 60.909 253.708 58.405 248.527L0.395408 128.5L60.3954 128.5L112.096 235.473C116.91 245.433 109.653 257 98.5904 257L71.9104 257Z" fill="#CBCBCB"/>
<path fill-rule="evenodd" clip-rule="evenodd" d="M161.91 257C156.156 257 150.909 253.708 148.405 248.527L90.3954 128.5L150.395 128.5L202.096 235.473C206.91 245.433 199.653 257 188.59 257L161.91 257Z" fill="#CBCBCB"/>
</svg>
