<svg width="600" height="507" viewBox="0 0 600 507" fill="none" xmlns="http://www.w3.org/2000/svg">
<path fill-rule="evenodd" clip-rule="evenodd" d="M175 89.5C175 93.6421 178.358 97 182.5 97H242.5C246.642 97 250 93.6421 250 89.5C250 85.3579 246.642 82 242.5 82H182.5C178.358 82 175 85.3579 175 89.5V89.5Z" fill="#C4C4C4"/>
<path fill-rule="evenodd" clip-rule="evenodd" d="M182.5 82C178.358 82 175 85.3579 175 89.5L175 149.5C175 153.642 178.358 157 182.5 157C186.642 157 190 153.642 190 149.5L190 89.5C190 85.3579 186.642 82 182.5 82V82Z" fill="#C4C4C4"/>
<path fill-rule="evenodd" clip-rule="evenodd" d="M425 324.5C425 320.358 421.642 317 417.5 317L357.5 317C353.358 317 350 320.358 350 324.5C350 328.642 353.358 332 357.5 332L417.5 332C421.642 332 425 328.642 425 324.5V324.5Z" fill="#C4C4C4"/>
<path fill-rule="evenodd" clip-rule="evenodd" d="M417.5 332C421.642 332 425 328.642 425 324.5L425 264.5C425 260.358 421.642 257 417.5 257C413.358 257 410 260.358 410 264.5L410 324.5C410 328.642 413.358 332 417.5 332V332Z" fill="#C4C4C4"/>
<path fill-rule="evenodd" clip-rule="evenodd" d="M182.5 332C186.642 332 190 328.642 190 324.5L190 264.5C190 260.358 186.642 257 182.5 257C178.358 257 175 260.358 175 264.5L175 324.5C175 328.642 178.358 332 182.5 332V332Z" fill="#C4C4C4"/>
<path fill-rule="evenodd" clip-rule="evenodd" d="M175 324.5C175 328.642 178.358 332 182.5 332H242.5C246.642 332 250 328.642 250 324.5C250 320.358 246.642 317 242.5 317H182.5C178.358 317 175 320.358 175 324.5V324.5Z" fill="#C4C4C4"/>
<path fill-rule="evenodd" clip-rule="evenodd" d="M417.5 82C413.358 82 410 85.3579 410 89.5L410 149.5C410 153.642 413.358 157 417.5 157C421.642 157 425 153.642 425 149.5L425 89.5C425 85.3579 421.642 82 417.5 82V82Z" fill="#C4C4C4"/>
<path fill-rule="evenodd" clip-rule="evenodd" d="M425 89.5C425 85.3579 421.642 82 417.5 82L357.5 82C353.358 82 350 85.3579 350 89.5C350 93.6421 353.358 97 357.5 97L417.5 97C421.642 97 425 93.6421 425 89.5V89.5Z" fill="#C4C4C4"/>
<path d="M232 255.145L257.407 211.555L279.327 237.211L331.387 175.436L369 255.145H232Z" stroke="#898989" stroke-width="5"/>
<circle cx="256.494" cy="172.53" r="12.0303" stroke="#898989" stroke-width="5"/>
<path d="M115.609 406.406V432H112.217V406.406H115.609ZM122.852 406.406H126.139L134.523 427.271L142.891 406.406H146.195L135.789 432H133.223L122.852 406.406ZM121.779 406.406H124.68L125.154 422.016V432H121.779V406.406ZM144.35 406.406H147.25V432H143.875V422.016L144.35 406.406ZM163 408.674L154.527 432H151.064L160.82 406.406H163.053L163 408.674ZM170.102 432L161.611 408.674L161.559 406.406H163.791L173.582 432H170.102ZM169.662 422.525V425.303H155.283V422.525H169.662ZM195.713 419.256V428.625C195.396 429.094 194.893 429.621 194.201 430.207C193.51 430.781 192.555 431.285 191.336 431.719C190.129 432.141 188.57 432.352 186.66 432.352C185.102 432.352 183.666 432.082 182.354 431.543C181.053 430.992 179.922 430.195 178.961 429.152C178.012 428.098 177.273 426.82 176.746 425.32C176.23 423.809 175.973 422.098 175.973 420.188V418.201C175.973 416.291 176.195 414.586 176.641 413.086C177.098 411.586 177.766 410.314 178.645 409.271C179.523 408.217 180.602 407.42 181.879 406.881C183.156 406.33 184.621 406.055 186.273 406.055C188.23 406.055 189.865 406.395 191.178 407.074C192.502 407.742 193.533 408.668 194.271 409.852C195.021 411.035 195.502 412.383 195.713 413.895H192.32C192.168 412.969 191.863 412.125 191.406 411.363C190.961 410.602 190.322 409.992 189.49 409.535C188.658 409.066 187.586 408.832 186.273 408.832C185.09 408.832 184.064 409.049 183.197 409.482C182.33 409.916 181.615 410.537 181.053 411.346C180.49 412.154 180.068 413.133 179.787 414.281C179.518 415.43 179.383 416.725 179.383 418.166V420.188C179.383 421.664 179.553 422.982 179.893 424.143C180.244 425.303 180.742 426.293 181.387 427.113C182.031 427.922 182.799 428.537 183.689 428.959C184.592 429.381 185.588 429.592 186.678 429.592C187.885 429.592 188.863 429.492 189.613 429.293C190.363 429.082 190.949 428.836 191.371 428.555C191.793 428.262 192.115 427.986 192.338 427.729V421.998H186.414V419.256H195.713ZM217.598 429.24V432H204.045V429.24H217.598ZM204.73 406.406V432H201.338V406.406H204.73ZM215.805 417.41V420.17H204.045V417.41H215.805ZM217.422 406.406V409.184H204.045V406.406H217.422ZM250.416 406.406V432H247.006L234.121 412.26V432H230.729V406.406H234.121L247.059 426.199V406.406H250.416ZM276.133 418.395V420.012C276.133 421.934 275.893 423.656 275.412 425.18C274.932 426.703 274.24 427.998 273.338 429.064C272.436 430.131 271.352 430.945 270.086 431.508C268.832 432.07 267.426 432.352 265.867 432.352C264.355 432.352 262.967 432.07 261.701 431.508C260.447 430.945 259.357 430.131 258.432 429.064C257.518 427.998 256.809 426.703 256.305 425.18C255.801 423.656 255.549 421.934 255.549 420.012V418.395C255.549 416.473 255.795 414.756 256.287 413.244C256.791 411.721 257.5 410.426 258.414 409.359C259.328 408.281 260.412 407.461 261.666 406.898C262.932 406.336 264.32 406.055 265.832 406.055C267.391 406.055 268.797 406.336 270.051 406.898C271.316 407.461 272.4 408.281 273.303 409.359C274.217 410.426 274.914 411.721 275.395 413.244C275.887 414.756 276.133 416.473 276.133 418.395ZM272.775 420.012V418.359C272.775 416.836 272.617 415.488 272.301 414.316C271.996 413.145 271.545 412.16 270.947 411.363C270.35 410.566 269.617 409.963 268.75 409.553C267.895 409.143 266.922 408.938 265.832 408.938C264.777 408.938 263.822 409.143 262.967 409.553C262.123 409.963 261.396 410.566 260.787 411.363C260.189 412.16 259.727 413.145 259.398 414.316C259.07 415.488 258.906 416.836 258.906 418.359V420.012C258.906 421.547 259.07 422.906 259.398 424.09C259.727 425.262 260.195 426.252 260.805 427.061C261.426 427.857 262.158 428.461 263.002 428.871C263.857 429.281 264.812 429.486 265.867 429.486C266.969 429.486 267.947 429.281 268.803 428.871C269.658 428.461 270.379 427.857 270.965 427.061C271.562 426.252 272.014 425.262 272.318 424.09C272.623 422.906 272.775 421.547 272.775 420.012ZM290.178 406.406V432H286.838V406.406H290.178ZM298.404 406.406V409.184H278.629V406.406H298.404ZM319.902 408.674L311.43 432H307.967L317.723 406.406H319.955L319.902 408.674ZM327.004 432L318.514 408.674L318.461 406.406H320.693L330.484 432H327.004ZM326.564 422.525V425.303H312.186V422.525H326.564ZM340.627 428.115L348.168 406.406H351.842L342.367 432H339.748L340.627 428.115ZM333.578 406.406L341.049 428.115L341.98 432H339.361L329.904 406.406H333.578ZM363.426 408.674L354.953 432H351.49L361.246 406.406H363.479L363.426 408.674ZM370.527 432L362.037 408.674L361.984 406.406H364.217L374.008 432H370.527ZM370.088 422.525V425.303H355.709V422.525H370.088ZM392.957 429.24V432H380.16V429.24H392.957ZM380.828 406.406V432H377.436V406.406H380.828ZM400.48 406.406V432H397.088V406.406H400.48ZM416.441 408.674L407.969 432H404.506L414.262 406.406H416.494L416.441 408.674ZM423.543 432L415.053 408.674L415 406.406H417.232L427.023 432H423.543ZM423.104 422.525V425.303H408.725V422.525H423.104ZM439.574 420.029H433.088L433.053 417.305H438.941C439.914 417.305 440.764 417.141 441.49 416.812C442.217 416.484 442.779 416.016 443.178 415.406C443.588 414.785 443.793 414.047 443.793 413.191C443.793 412.254 443.611 411.492 443.248 410.906C442.896 410.309 442.352 409.875 441.613 409.605C440.887 409.324 439.961 409.184 438.836 409.184H433.844V432H430.451V406.406H438.836C440.148 406.406 441.32 406.541 442.352 406.811C443.383 407.068 444.256 407.479 444.971 408.041C445.697 408.592 446.248 409.295 446.623 410.15C446.998 411.006 447.186 412.031 447.186 413.227C447.186 414.281 446.916 415.236 446.377 416.092C445.838 416.936 445.088 417.627 444.127 418.166C443.178 418.705 442.064 419.051 440.787 419.203L439.574 420.029ZM439.416 432H431.752L433.668 429.24H439.416C440.494 429.24 441.408 429.053 442.158 428.678C442.92 428.303 443.5 427.775 443.898 427.096C444.297 426.404 444.496 425.59 444.496 424.652C444.496 423.703 444.326 422.883 443.986 422.191C443.646 421.5 443.113 420.967 442.387 420.592C441.66 420.217 440.723 420.029 439.574 420.029H434.74L434.775 417.305H441.385L442.105 418.289C443.336 418.395 444.379 418.746 445.234 419.344C446.09 419.93 446.74 420.68 447.186 421.594C447.643 422.508 447.871 423.516 447.871 424.617C447.871 426.211 447.52 427.559 446.816 428.66C446.125 429.75 445.146 430.582 443.881 431.156C442.615 431.719 441.127 432 439.416 432ZM468.402 429.24V432H455.605V429.24H468.402ZM456.273 406.406V432H452.881V406.406H456.273ZM488.547 429.24V432H474.994V429.24H488.547ZM475.68 406.406V432H472.287V406.406H475.68ZM486.754 417.41V420.17H474.994V417.41H486.754ZM488.371 406.406V409.184H474.994V406.406H488.371Z" fill="#C4C4C4"/>
</svg>
