<svg width="500" height="500" viewBox="0 0 500 500" fill="none" xmlns="http://www.w3.org/2000/svg">
<path fill-rule="evenodd" clip-rule="evenodd" d="M125 82.5C125 86.6421 128.358 90 132.5 90H192.5C196.642 90 200 86.6421 200 82.5C200 78.3579 196.642 75 192.5 75H132.5C128.358 75 125 78.3579 125 82.5V82.5Z" fill="#C4C4C4"/>
<path fill-rule="evenodd" clip-rule="evenodd" d="M132.5 75C128.358 75 125 78.3579 125 82.5L125 142.5C125 146.642 128.358 150 132.5 150C136.642 150 140 146.642 140 142.5L140 82.5C140 78.3579 136.642 75 132.5 75V75Z" fill="#C4C4C4"/>
<path fill-rule="evenodd" clip-rule="evenodd" d="M375 317.5C375 313.358 371.642 310 367.5 310L307.5 310C303.358 310 300 313.358 300 317.5C300 321.642 303.358 325 307.5 325L367.5 325C371.642 325 375 321.642 375 317.5V317.5Z" fill="#C4C4C4"/>
<path fill-rule="evenodd" clip-rule="evenodd" d="M367.5 325C371.642 325 375 321.642 375 317.5L375 257.5C375 253.358 371.642 250 367.5 250C363.358 250 360 253.358 360 257.5L360 317.5C360 321.642 363.358 325 367.5 325V325Z" fill="#C4C4C4"/>
<path fill-rule="evenodd" clip-rule="evenodd" d="M132.5 325C136.642 325 140 321.642 140 317.5L140 257.5C140 253.358 136.642 250 132.5 250C128.358 250 125 253.358 125 257.5L125 317.5C125 321.642 128.358 325 132.5 325V325Z" fill="#C4C4C4"/>
<path fill-rule="evenodd" clip-rule="evenodd" d="M125 317.5C125 321.642 128.358 325 132.5 325H192.5C196.642 325 200 321.642 200 317.5C200 313.358 196.642 310 192.5 310H132.5C128.358 310 125 313.358 125 317.5V317.5Z" fill="#C4C4C4"/>
<path fill-rule="evenodd" clip-rule="evenodd" d="M367.5 75C363.358 75 360 78.3579 360 82.5L360 142.5C360 146.642 363.358 150 367.5 150C371.642 150 375 146.642 375 142.5L375 82.5C375 78.3579 371.642 75 367.5 75V75Z" fill="#C4C4C4"/>
<path fill-rule="evenodd" clip-rule="evenodd" d="M375 82.5C375 78.3579 371.642 75 367.5 75L307.5 75C303.358 75 300 78.3579 300 82.5C300 86.6421 303.358 90 307.5 90L367.5 90C371.642 90 375 86.6421 375 82.5V82.5Z" fill="#C4C4C4"/>
<path d="M182 248.145L207.407 204.555L229.327 230.211L281.387 168.436L319 248.145H182Z" stroke="#898989" stroke-width="5"/>
<circle cx="206.494" cy="165.53" r="12.0303" stroke="#898989" stroke-width="5"/>
<path d="M65.6094 399.406V425H62.2168V399.406H65.6094ZM72.8516 399.406H76.1387L84.5234 420.271L92.8906 399.406H96.1953L85.7891 425H83.2227L72.8516 399.406ZM71.7793 399.406H74.6797L75.1543 415.016V425H71.7793V399.406ZM94.3496 399.406H97.25V425H93.875V415.016L94.3496 399.406ZM113 401.674L104.527 425H101.064L110.82 399.406H113.053L113 401.674ZM120.102 425L111.611 401.674L111.559 399.406H113.791L123.582 425H120.102ZM119.662 415.525V418.303H105.283V415.525H119.662ZM145.713 412.256V421.625C145.396 422.094 144.893 422.621 144.201 423.207C143.51 423.781 142.555 424.285 141.336 424.719C140.129 425.141 138.57 425.352 136.66 425.352C135.102 425.352 133.666 425.082 132.354 424.543C131.053 423.992 129.922 423.195 128.961 422.152C128.012 421.098 127.273 419.82 126.746 418.32C126.23 416.809 125.973 415.098 125.973 413.188V411.201C125.973 409.291 126.195 407.586 126.641 406.086C127.098 404.586 127.766 403.314 128.645 402.271C129.523 401.217 130.602 400.42 131.879 399.881C133.156 399.33 134.621 399.055 136.273 399.055C138.23 399.055 139.865 399.395 141.178 400.074C142.502 400.742 143.533 401.668 144.271 402.852C145.021 404.035 145.502 405.383 145.713 406.895H142.32C142.168 405.969 141.863 405.125 141.406 404.363C140.961 403.602 140.322 402.992 139.49 402.535C138.658 402.066 137.586 401.832 136.273 401.832C135.09 401.832 134.064 402.049 133.197 402.482C132.33 402.916 131.615 403.537 131.053 404.346C130.49 405.154 130.068 406.133 129.787 407.281C129.518 408.43 129.383 409.725 129.383 411.166V413.188C129.383 414.664 129.553 415.982 129.893 417.143C130.244 418.303 130.742 419.293 131.387 420.113C132.031 420.922 132.799 421.537 133.689 421.959C134.592 422.381 135.588 422.592 136.678 422.592C137.885 422.592 138.863 422.492 139.613 422.293C140.363 422.082 140.949 421.836 141.371 421.555C141.793 421.262 142.115 420.986 142.338 420.729V414.998H136.414V412.256H145.713ZM167.598 422.24V425H154.045V422.24H167.598ZM154.73 399.406V425H151.338V399.406H154.73ZM165.805 410.41V413.17H154.045V410.41H165.805ZM167.422 399.406V402.184H154.045V399.406H167.422ZM200.416 399.406V425H197.006L184.121 405.26V425H180.729V399.406H184.121L197.059 419.199V399.406H200.416ZM226.133 411.395V413.012C226.133 414.934 225.893 416.656 225.412 418.18C224.932 419.703 224.24 420.998 223.338 422.064C222.436 423.131 221.352 423.945 220.086 424.508C218.832 425.07 217.426 425.352 215.867 425.352C214.355 425.352 212.967 425.07 211.701 424.508C210.447 423.945 209.357 423.131 208.432 422.064C207.518 420.998 206.809 419.703 206.305 418.18C205.801 416.656 205.549 414.934 205.549 413.012V411.395C205.549 409.473 205.795 407.756 206.287 406.244C206.791 404.721 207.5 403.426 208.414 402.359C209.328 401.281 210.412 400.461 211.666 399.898C212.932 399.336 214.32 399.055 215.832 399.055C217.391 399.055 218.797 399.336 220.051 399.898C221.316 400.461 222.4 401.281 223.303 402.359C224.217 403.426 224.914 404.721 225.395 406.244C225.887 407.756 226.133 409.473 226.133 411.395ZM222.775 413.012V411.359C222.775 409.836 222.617 408.488 222.301 407.316C221.996 406.145 221.545 405.16 220.947 404.363C220.35 403.566 219.617 402.963 218.75 402.553C217.895 402.143 216.922 401.938 215.832 401.938C214.777 401.938 213.822 402.143 212.967 402.553C212.123 402.963 211.396 403.566 210.787 404.363C210.189 405.16 209.727 406.145 209.398 407.316C209.07 408.488 208.906 409.836 208.906 411.359V413.012C208.906 414.547 209.07 415.906 209.398 417.09C209.727 418.262 210.195 419.252 210.805 420.061C211.426 420.857 212.158 421.461 213.002 421.871C213.857 422.281 214.812 422.486 215.867 422.486C216.969 422.486 217.947 422.281 218.803 421.871C219.658 421.461 220.379 420.857 220.965 420.061C221.562 419.252 222.014 418.262 222.318 417.09C222.623 415.906 222.775 414.547 222.775 413.012ZM240.178 399.406V425H236.838V399.406H240.178ZM248.404 399.406V402.184H228.629V399.406H248.404ZM269.902 401.674L261.43 425H257.967L267.723 399.406H269.955L269.902 401.674ZM277.004 425L268.514 401.674L268.461 399.406H270.693L280.484 425H277.004ZM276.564 415.525V418.303H262.186V415.525H276.564ZM290.627 421.115L298.168 399.406H301.842L292.367 425H289.748L290.627 421.115ZM283.578 399.406L291.049 421.115L291.98 425H289.361L279.904 399.406H283.578ZM313.426 401.674L304.953 425H301.49L311.246 399.406H313.479L313.426 401.674ZM320.527 425L312.037 401.674L311.984 399.406H314.217L324.008 425H320.527ZM320.088 415.525V418.303H305.709V415.525H320.088ZM342.957 422.24V425H330.16V422.24H342.957ZM330.828 399.406V425H327.436V399.406H330.828ZM350.48 399.406V425H347.088V399.406H350.48ZM366.441 401.674L357.969 425H354.506L364.262 399.406H366.494L366.441 401.674ZM373.543 425L365.053 401.674L365 399.406H367.232L377.023 425H373.543ZM373.104 415.525V418.303H358.725V415.525H373.104ZM389.574 413.029H383.088L383.053 410.305H388.941C389.914 410.305 390.764 410.141 391.49 409.812C392.217 409.484 392.779 409.016 393.178 408.406C393.588 407.785 393.793 407.047 393.793 406.191C393.793 405.254 393.611 404.492 393.248 403.906C392.896 403.309 392.352 402.875 391.613 402.605C390.887 402.324 389.961 402.184 388.836 402.184H383.844V425H380.451V399.406H388.836C390.148 399.406 391.32 399.541 392.352 399.811C393.383 400.068 394.256 400.479 394.971 401.041C395.697 401.592 396.248 402.295 396.623 403.15C396.998 404.006 397.186 405.031 397.186 406.227C397.186 407.281 396.916 408.236 396.377 409.092C395.838 409.936 395.088 410.627 394.127 411.166C393.178 411.705 392.064 412.051 390.787 412.203L389.574 413.029ZM389.416 425H381.752L383.668 422.24H389.416C390.494 422.24 391.408 422.053 392.158 421.678C392.92 421.303 393.5 420.775 393.898 420.096C394.297 419.404 394.496 418.59 394.496 417.652C394.496 416.703 394.326 415.883 393.986 415.191C393.646 414.5 393.113 413.967 392.387 413.592C391.66 413.217 390.723 413.029 389.574 413.029H384.74L384.775 410.305H391.385L392.105 411.289C393.336 411.395 394.379 411.746 395.234 412.344C396.09 412.93 396.74 413.68 397.186 414.594C397.643 415.508 397.871 416.516 397.871 417.617C397.871 419.211 397.52 420.559 396.816 421.66C396.125 422.75 395.146 423.582 393.881 424.156C392.615 424.719 391.127 425 389.416 425ZM418.402 422.24V425H405.605V422.24H418.402ZM406.273 399.406V425H402.881V399.406H406.273ZM438.547 422.24V425H424.994V422.24H438.547ZM425.68 399.406V425H422.287V399.406H425.68ZM436.754 410.41V413.17H424.994V410.41H436.754ZM438.371 399.406V402.184H424.994V399.406H438.371Z" fill="#C4C4C4"/>
</svg>
