<svg width="500" height="600" viewBox="0 0 500 600" fill="none" xmlns="http://www.w3.org/2000/svg">
<path fill-rule="evenodd" clip-rule="evenodd" d="M125 132.5C125 136.642 128.358 140 132.5 140H192.5C196.642 140 200 136.642 200 132.5C200 128.358 196.642 125 192.5 125H132.5C128.358 125 125 128.358 125 132.5V132.5Z" fill="#C4C4C4"/>
<path fill-rule="evenodd" clip-rule="evenodd" d="M132.5 125C128.358 125 125 128.358 125 132.5L125 192.5C125 196.642 128.358 200 132.5 200C136.642 200 140 196.642 140 192.5L140 132.5C140 128.358 136.642 125 132.5 125V125Z" fill="#C4C4C4"/>
<path fill-rule="evenodd" clip-rule="evenodd" d="M375 367.5C375 363.358 371.642 360 367.5 360L307.5 360C303.358 360 300 363.358 300 367.5C300 371.642 303.358 375 307.5 375L367.5 375C371.642 375 375 371.642 375 367.5V367.5Z" fill="#C4C4C4"/>
<path fill-rule="evenodd" clip-rule="evenodd" d="M367.5 375C371.642 375 375 371.642 375 367.5L375 307.5C375 303.358 371.642 300 367.5 300C363.358 300 360 303.358 360 307.5L360 367.5C360 371.642 363.358 375 367.5 375V375Z" fill="#C4C4C4"/>
<path fill-rule="evenodd" clip-rule="evenodd" d="M132.5 375C136.642 375 140 371.642 140 367.5L140 307.5C140 303.358 136.642 300 132.5 300C128.358 300 125 303.358 125 307.5L125 367.5C125 371.642 128.358 375 132.5 375V375Z" fill="#C4C4C4"/>
<path fill-rule="evenodd" clip-rule="evenodd" d="M125 367.5C125 371.642 128.358 375 132.5 375H192.5C196.642 375 200 371.642 200 367.5C200 363.358 196.642 360 192.5 360H132.5C128.358 360 125 363.358 125 367.5V367.5Z" fill="#C4C4C4"/>
<path fill-rule="evenodd" clip-rule="evenodd" d="M367.5 125C363.358 125 360 128.358 360 132.5L360 192.5C360 196.642 363.358 200 367.5 200C371.642 200 375 196.642 375 192.5L375 132.5C375 128.358 371.642 125 367.5 125V125Z" fill="#C4C4C4"/>
<path fill-rule="evenodd" clip-rule="evenodd" d="M375 132.5C375 128.358 371.642 125 367.5 125L307.5 125C303.358 125 300 128.358 300 132.5C300 136.642 303.358 140 307.5 140L367.5 140C371.642 140 375 136.642 375 132.5V132.5Z" fill="#C4C4C4"/>
<path d="M182 298.145L207.407 254.555L229.327 280.211L281.387 218.436L319 298.145H182Z" stroke="#898989" stroke-width="5"/>
<circle cx="206.494" cy="215.53" r="12.0303" stroke="#898989" stroke-width="5"/>
<path d="M65.6094 449.406V475H62.2168V449.406H65.6094ZM72.8516 449.406H76.1387L84.5234 470.271L92.8906 449.406H96.1953L85.7891 475H83.2227L72.8516 449.406ZM71.7793 449.406H74.6797L75.1543 465.016V475H71.7793V449.406ZM94.3496 449.406H97.25V475H93.875V465.016L94.3496 449.406ZM113 451.674L104.527 475H101.064L110.82 449.406H113.053L113 451.674ZM120.102 475L111.611 451.674L111.559 449.406H113.791L123.582 475H120.102ZM119.662 465.525V468.303H105.283V465.525H119.662ZM145.713 462.256V471.625C145.396 472.094 144.893 472.621 144.201 473.207C143.51 473.781 142.555 474.285 141.336 474.719C140.129 475.141 138.57 475.352 136.66 475.352C135.102 475.352 133.666 475.082 132.354 474.543C131.053 473.992 129.922 473.195 128.961 472.152C128.012 471.098 127.273 469.82 126.746 468.32C126.23 466.809 125.973 465.098 125.973 463.188V461.201C125.973 459.291 126.195 457.586 126.641 456.086C127.098 454.586 127.766 453.314 128.645 452.271C129.523 451.217 130.602 450.42 131.879 449.881C133.156 449.33 134.621 449.055 136.273 449.055C138.23 449.055 139.865 449.395 141.178 450.074C142.502 450.742 143.533 451.668 144.271 452.852C145.021 454.035 145.502 455.383 145.713 456.895H142.32C142.168 455.969 141.863 455.125 141.406 454.363C140.961 453.602 140.322 452.992 139.49 452.535C138.658 452.066 137.586 451.832 136.273 451.832C135.09 451.832 134.064 452.049 133.197 452.482C132.33 452.916 131.615 453.537 131.053 454.346C130.49 455.154 130.068 456.133 129.787 457.281C129.518 458.43 129.383 459.725 129.383 461.166V463.188C129.383 464.664 129.553 465.982 129.893 467.143C130.244 468.303 130.742 469.293 131.387 470.113C132.031 470.922 132.799 471.537 133.689 471.959C134.592 472.381 135.588 472.592 136.678 472.592C137.885 472.592 138.863 472.492 139.613 472.293C140.363 472.082 140.949 471.836 141.371 471.555C141.793 471.262 142.115 470.986 142.338 470.729V464.998H136.414V462.256H145.713ZM167.598 472.24V475H154.045V472.24H167.598ZM154.73 449.406V475H151.338V449.406H154.73ZM165.805 460.41V463.17H154.045V460.41H165.805ZM167.422 449.406V452.184H154.045V449.406H167.422ZM200.416 449.406V475H197.006L184.121 455.26V475H180.729V449.406H184.121L197.059 469.199V449.406H200.416ZM226.133 461.395V463.012C226.133 464.934 225.893 466.656 225.412 468.18C224.932 469.703 224.24 470.998 223.338 472.064C222.436 473.131 221.352 473.945 220.086 474.508C218.832 475.07 217.426 475.352 215.867 475.352C214.355 475.352 212.967 475.07 211.701 474.508C210.447 473.945 209.357 473.131 208.432 472.064C207.518 470.998 206.809 469.703 206.305 468.18C205.801 466.656 205.549 464.934 205.549 463.012V461.395C205.549 459.473 205.795 457.756 206.287 456.244C206.791 454.721 207.5 453.426 208.414 452.359C209.328 451.281 210.412 450.461 211.666 449.898C212.932 449.336 214.32 449.055 215.832 449.055C217.391 449.055 218.797 449.336 220.051 449.898C221.316 450.461 222.4 451.281 223.303 452.359C224.217 453.426 224.914 454.721 225.395 456.244C225.887 457.756 226.133 459.473 226.133 461.395ZM222.775 463.012V461.359C222.775 459.836 222.617 458.488 222.301 457.316C221.996 456.145 221.545 455.16 220.947 454.363C220.35 453.566 219.617 452.963 218.75 452.553C217.895 452.143 216.922 451.938 215.832 451.938C214.777 451.938 213.822 452.143 212.967 452.553C212.123 452.963 211.396 453.566 210.787 454.363C210.189 455.16 209.727 456.145 209.398 457.316C209.07 458.488 208.906 459.836 208.906 461.359V463.012C208.906 464.547 209.07 465.906 209.398 467.09C209.727 468.262 210.195 469.252 210.805 470.061C211.426 470.857 212.158 471.461 213.002 471.871C213.857 472.281 214.812 472.486 215.867 472.486C216.969 472.486 217.947 472.281 218.803 471.871C219.658 471.461 220.379 470.857 220.965 470.061C221.562 469.252 222.014 468.262 222.318 467.09C222.623 465.906 222.775 464.547 222.775 463.012ZM240.178 449.406V475H236.838V449.406H240.178ZM248.404 449.406V452.184H228.629V449.406H248.404ZM269.902 451.674L261.43 475H257.967L267.723 449.406H269.955L269.902 451.674ZM277.004 475L268.514 451.674L268.461 449.406H270.693L280.484 475H277.004ZM276.564 465.525V468.303H262.186V465.525H276.564ZM290.627 471.115L298.168 449.406H301.842L292.367 475H289.748L290.627 471.115ZM283.578 449.406L291.049 471.115L291.98 475H289.361L279.904 449.406H283.578ZM313.426 451.674L304.953 475H301.49L311.246 449.406H313.479L313.426 451.674ZM320.527 475L312.037 451.674L311.984 449.406H314.217L324.008 475H320.527ZM320.088 465.525V468.303H305.709V465.525H320.088ZM342.957 472.24V475H330.16V472.24H342.957ZM330.828 449.406V475H327.436V449.406H330.828ZM350.48 449.406V475H347.088V449.406H350.48ZM366.441 451.674L357.969 475H354.506L364.262 449.406H366.494L366.441 451.674ZM373.543 475L365.053 451.674L365 449.406H367.232L377.023 475H373.543ZM373.104 465.525V468.303H358.725V465.525H373.104ZM389.574 463.029H383.088L383.053 460.305H388.941C389.914 460.305 390.764 460.141 391.49 459.812C392.217 459.484 392.779 459.016 393.178 458.406C393.588 457.785 393.793 457.047 393.793 456.191C393.793 455.254 393.611 454.492 393.248 453.906C392.896 453.309 392.352 452.875 391.613 452.605C390.887 452.324 389.961 452.184 388.836 452.184H383.844V475H380.451V449.406H388.836C390.148 449.406 391.32 449.541 392.352 449.811C393.383 450.068 394.256 450.479 394.971 451.041C395.697 451.592 396.248 452.295 396.623 453.15C396.998 454.006 397.186 455.031 397.186 456.227C397.186 457.281 396.916 458.236 396.377 459.092C395.838 459.936 395.088 460.627 394.127 461.166C393.178 461.705 392.064 462.051 390.787 462.203L389.574 463.029ZM389.416 475H381.752L383.668 472.24H389.416C390.494 472.24 391.408 472.053 392.158 471.678C392.92 471.303 393.5 470.775 393.898 470.096C394.297 469.404 394.496 468.59 394.496 467.652C394.496 466.703 394.326 465.883 393.986 465.191C393.646 464.5 393.113 463.967 392.387 463.592C391.66 463.217 390.723 463.029 389.574 463.029H384.74L384.775 460.305H391.385L392.105 461.289C393.336 461.395 394.379 461.746 395.234 462.344C396.09 462.93 396.74 463.68 397.186 464.594C397.643 465.508 397.871 466.516 397.871 467.617C397.871 469.211 397.52 470.559 396.816 471.66C396.125 472.75 395.146 473.582 393.881 474.156C392.615 474.719 391.127 475 389.416 475ZM418.402 472.24V475H405.605V472.24H418.402ZM406.273 449.406V475H402.881V449.406H406.273ZM438.547 472.24V475H424.994V472.24H438.547ZM425.68 449.406V475H422.287V449.406H425.68ZM436.754 460.41V463.17H424.994V460.41H436.754ZM438.371 449.406V452.184H424.994V449.406H438.371Z" fill="#C4C4C4"/>
</svg>
