<svg width="204" height="257" viewBox="0 0 204 257" fill="none" xmlns="http://www.w3.org/2000/svg">
<path fill-rule="evenodd" clip-rule="evenodd" d="M132.094 257C137.848 257 143.095 253.708 145.599 248.527L203.609 128.5H143.609L91.9086 235.473C87.0947 245.433 94.3512 257 105.414 257H132.094Z" fill="#CBCBCB"/>
<path fill-rule="evenodd" clip-rule="evenodd" d="M42.094 257C47.8483 257 53.0954 253.708 55.5994 248.527L113.609 128.5H53.609L1.90862 235.473C-2.90531 245.433 4.35124 257 15.414 257H42.094Z" fill="#CBCBCB"/>
<path fill-rule="evenodd" clip-rule="evenodd" d="M131.699 -1.25041e-05C137.453 -1.1498e-05 142.7 3.29185 145.204 8.47279L203.214 128.5L143.214 128.5L91.5132 21.5272C86.6993 11.5667 93.9559 -1.91032e-05 105.019 -1.7169e-05L131.699 -1.25041e-05Z" fill="#CBCBCB"/>
<path fill-rule="evenodd" clip-rule="evenodd" d="M41.6986 -1.25041e-05C47.4529 -1.1498e-05 52.7 3.29185 55.204 8.47279L113.214 128.5L53.2136 128.5L1.51323 21.5272C-3.3007 11.5667 3.95586 -1.91032e-05 15.0186 -1.7169e-05L41.6986 -1.25041e-05Z" fill="#CBCBCB"/>
</svg>
