<svg width="85" height="91" viewBox="0 0 85 91" fill="none" xmlns="http://www.w3.org/2000/svg">
<mask id="path-1-inside-1_12_3" fill="white">
<path fill-rule="evenodd" clip-rule="evenodd" d="M0 90.8493C0 90.8493 2.22027e-05 90.8493 4.95911e-05 90.8493V90.8493C7.69795e-05 90.8493 9.91821e-05 90.8493 9.91821e-05 90.8493V74.9483C9.91821e-05 74.8114 0.174919 74.754 0.256025 74.8643V74.8643C0.312669 74.9413 0.427749 74.9413 0.484392 74.8643L12.0533 59.1352C13.9377 56.5731 16.9285 55.0602 20.109 55.0602H75.0002C80.523 55.0602 85.0002 50.583 85.0002 45.0602V10C85.0002 4.47715 80.523 0 75.0002 0H10C4.47715 0 0 4.47715 0 10V90.8493Z"/>
</mask>
<path fill-rule="evenodd" clip-rule="evenodd" d="M0 90.8493C0 90.8493 2.22027e-05 90.8493 4.95911e-05 90.8493V90.8493C7.69795e-05 90.8493 9.91821e-05 90.8493 9.91821e-05 90.8493V74.9483C9.91821e-05 74.8114 0.174919 74.754 0.256025 74.8643V74.8643C0.312669 74.9413 0.427749 74.9413 0.484392 74.8643L12.0533 59.1352C13.9377 56.5731 16.9285 55.0602 20.109 55.0602H75.0002C80.523 55.0602 85.0002 50.583 85.0002 45.0602V10C85.0002 4.47715 80.523 0 75.0002 0H10C4.47715 0 0 4.47715 0 10V90.8493Z" fill="#FEE4D3"/>
<path d="M0.484392 74.8643L1.28996 75.4568L0.484392 74.8643ZM-0.999901 74.9483V90.8493H1.0001V74.9483H-0.999901ZM11.2477 58.5427L-0.321177 74.2718L1.28996 75.4568L12.8588 59.7277L11.2477 58.5427ZM75.0002 54.0602H20.109V56.0602H75.0002V54.0602ZM84.0002 10V45.0602H86.0002V10H84.0002ZM10 1H75.0002V-1H10V1ZM-1 10V90.8493H1V10H-1ZM10 -1C3.92487 -1 -1 3.92487 -1 10H1C1 5.02944 5.02944 1 10 1V-1ZM86.0002 10C86.0002 3.92487 81.0753 -1 75.0002 -1V1C79.9707 1 84.0002 5.02944 84.0002 10H86.0002ZM75.0002 56.0602C81.0753 56.0602 86.0002 51.1353 86.0002 45.0602H84.0002C84.0002 50.0308 79.9707 54.0602 75.0002 54.0602V56.0602ZM12.8588 59.7277C14.5548 57.4218 17.2465 56.0602 20.109 56.0602V54.0602C16.6105 54.0602 13.3206 55.7244 11.2477 58.5427L12.8588 59.7277ZM-0.549544 75.4568C-0.0932768 76.0771 0.833694 76.0771 1.28996 75.4568L-0.321177 74.2718C0.0218032 73.8055 0.718615 73.8055 1.0616 74.2718L-0.549544 75.4568ZM1.0001 74.9483C1.0001 75.7771 -0.0584407 76.1245 -0.549544 75.4568L1.0616 74.2718C0.408279 73.3835 -0.999901 73.8456 -0.999901 74.9483H1.0001ZM4.95911e-05 89.8493C0.338004 89.8493 0.595739 90.014 0.748013 90.1856C0.89792 90.3545 1 90.5866 1 90.8493H-1C-1 91.2858 -0.661307 91.8493 4.95911e-05 91.8493V89.8493ZM4.95911e-05 91.8493C0.553897 91.8493 1.0001 91.4 1.0001 90.8493H-0.999901C-0.999901 90.2985 -0.553743 89.8493 4.95911e-05 89.8493V91.8493Z" fill="#EDC59D" mask="url(#path-1-inside-1_12_3)"/>
<path d="M37.9616 18.48V28.66H39.6216V18.48H37.9616ZM39.1616 22.72V24.12H42.3016V22.72H39.1616ZM26.4216 26.24V27.62H27.8216C31.6216 27.62 33.7616 27.5 36.2416 26.98L36.0616 25.64C33.6416 26.12 31.5416 26.24 27.8216 26.24H26.4216ZM26.4216 19.66V27.06H28.0616V21H34.3816V19.66H26.4216ZM28.3216 29.66V35.6H29.9816V31.02H39.7816V29.66H28.3216ZM28.3216 34.98V36.32H40.1216V34.98H28.3216ZM57.16 18.48V36.56H58.82V18.48H57.16ZM51.86 20.42V20.7C51.86 25.5 49.44 29.34 44.22 31.86L45.1 33.2C51.14 30.24 53.5 25.66 53.5 20.42H51.86ZM45.04 20.42V21.78H52.58V20.42H45.04Z" fill="black"/>
</svg>
