<svg width="85" height="91" viewBox="0 0 85 91" fill="none" xmlns="http://www.w3.org/2000/svg">
<mask id="path-1-inside-1_12_17" fill="white">
<path fill-rule="evenodd" clip-rule="evenodd" d="M-9.91821e-05 90.8493C-9.91821e-05 90.8493 -7.69795e-05 90.8493 -4.95911e-05 90.8493V90.8493C-2.22027e-05 90.8493 0 90.8493 0 90.8493V74.9483C0 74.8114 0.17482 74.754 0.255926 74.8643V74.8643C0.31257 74.9413 0.427649 74.9413 0.484293 74.8643L12.0532 59.1352C13.9376 56.5731 16.9284 55.0602 20.1089 55.0602H75.0001C80.5229 55.0602 85.0001 50.583 85.0001 45.0602V10C85.0001 4.47715 80.5229 0 75.0001 0H9.9999C4.47705 0 -9.91821e-05 4.47715 -9.91821e-05 10V90.8493Z"/>
</mask>
<path fill-rule="evenodd" clip-rule="evenodd" d="M-9.91821e-05 90.8493C-9.91821e-05 90.8493 -7.69795e-05 90.8493 -4.95911e-05 90.8493V90.8493C-2.22027e-05 90.8493 0 90.8493 0 90.8493V74.9483C0 74.8114 0.17482 74.754 0.255926 74.8643V74.8643C0.31257 74.9413 0.427649 74.9413 0.484293 74.8643L12.0532 59.1352C13.9376 56.5731 16.9284 55.0602 20.1089 55.0602H75.0001C80.5229 55.0602 85.0001 50.583 85.0001 45.0602V10C85.0001 4.47715 80.5229 0 75.0001 0H9.9999C4.47705 0 -9.91821e-05 4.47715 -9.91821e-05 10V90.8493Z" fill="#FEE4D3"/>
<path d="M0.484293 74.8643L1.28986 75.4568L0.484293 74.8643ZM-1 74.9483V90.8493H1V74.9483H-1ZM11.2476 58.5427L-0.321276 74.2718L1.28986 75.4568L12.8587 59.7277L11.2476 58.5427ZM75.0001 54.0602H20.1089V56.0602H75.0001V54.0602ZM84.0001 10V45.0602H86.0001V10H84.0001ZM9.9999 1H75.0001V-1H9.9999V1ZM-1.0001 10V90.8493H0.999901V10H-1.0001ZM9.9999 -1C3.92477 -1 -1.0001 3.92487 -1.0001 10H0.999901C0.999901 5.02944 5.02934 1 9.9999 1V-1ZM86.0001 10C86.0001 3.92487 81.0752 -1 75.0001 -1V1C79.9706 1 84.0001 5.02944 84.0001 10H86.0001ZM75.0001 56.0602C81.0752 56.0602 86.0001 51.1353 86.0001 45.0602H84.0001C84.0001 50.0308 79.9706 54.0602 75.0001 54.0602V56.0602ZM12.8587 59.7277C14.5547 57.4218 17.2464 56.0602 20.1089 56.0602V54.0602C16.6104 54.0602 13.3205 55.7244 11.2476 58.5427L12.8587 59.7277ZM-0.549644 75.4568C-0.093376 76.0771 0.833595 76.0771 1.28986 75.4568L-0.321276 74.2718C0.021704 73.8055 0.718516 73.8055 1.0615 74.2718L-0.549644 75.4568ZM1 74.9483C1 75.7771 -0.0585399 76.1245 -0.549644 75.4568L1.0615 74.2718C0.408179 73.3835 -1 73.8456 -1 74.9483H1ZM-4.95911e-05 89.8493C0.337905 89.8493 0.59564 90.014 0.747914 90.1856C0.897821 90.3545 0.999901 90.5866 0.999901 90.8493H-1.0001C-1.0001 91.2858 -0.661406 91.8493 -4.95911e-05 91.8493V89.8493ZM-4.95911e-05 91.8493C0.553798 91.8493 1 91.4 1 90.8493H-1C-1 90.2985 -0.553842 89.8493 -4.95911e-05 89.8493V91.8493Z" fill="#EDC59D" mask="url(#path-1-inside-1_12_17)"/>
<path d="M34.0616 20.64V21.98H39.2016V20.64H34.0616ZM34.0616 24.38V25.7H39.2016V24.38H34.0616ZM30.5216 19.08C27.8216 19.08 25.8616 20.78 25.8616 23.22C25.8616 25.62 27.8216 27.32 30.5216 27.32C33.2216 27.32 35.1816 25.62 35.1816 23.22C35.1816 20.78 33.2216 19.08 30.5216 19.08ZM30.5216 20.46C32.3016 20.46 33.6016 21.6 33.6016 23.22C33.6016 24.82 32.3016 25.96 30.5216 25.96C28.7416 25.96 27.4616 24.82 27.4616 23.22C27.4616 21.6 28.7416 20.46 30.5216 20.46ZM38.8016 18.48V27.74H40.4616V18.48H38.8016ZM28.8216 28.66V29.98H38.8216V31.78H28.8616V35.74H30.4816V33.02H40.4616V28.66H28.8216ZM28.8616 35V36.32H41.1216V35H28.8616ZM57.16 18.48V36.56H58.82V18.48H57.16ZM51.86 20.42V20.7C51.86 25.5 49.44 29.34 44.22 31.86L45.1 33.2C51.14 30.24 53.5 25.66 53.5 20.42H51.86ZM45.04 20.42V21.78H52.58V20.42H45.04Z" fill="black"/>
</svg>
